<svg width="248" height="48" viewBox="0 0 248 48" fill="none" xmlns="http://www.w3.org/2000/svg">
<g clip-path="url(#clip0_1_15271)">
<path d="M69.3708 34.0018C64.7973 34.0018 61.963 29.8943 61.963 24.2113C61.963 18.5845 64.3482 14.3926 69.3427 14.3926C72.6255 14.3926 74.7861 16.5026 75.1794 19.2879H82.8117C82.4184 15.8274 80.8753 12.789 78.1817 10.7634C75.9929 9.07532 72.9625 8.03442 69.3708 8.03442C60.1672 8.03442 54.1904 15.0115 54.1904 24.2113C54.1904 33.4673 60.3636 40.2475 69.4272 40.2475C73.776 40.2475 76.9467 39.0378 79.304 36.7307C81.4082 34.7052 82.8117 31.8917 83.0077 28.8252H75.3755C75.0392 31.8355 72.794 34.0018 69.3708 34.0018Z" fill="#262626"/>
<path d="M97.0935 16.8402C90.0223 16.8402 85.2803 21.9043 85.2803 28.572C85.2803 35.2396 90.0223 40.3037 97.0935 40.3037C104.22 40.3037 108.878 35.2396 108.878 28.572C108.878 21.9043 104.22 16.8402 97.0935 16.8402ZM97.0653 35.2678C94.0066 35.2678 92.4071 32.5951 92.4071 28.572C92.4071 24.5488 94.0066 21.8199 97.0653 21.8199C100.124 21.8199 101.779 24.5488 101.779 28.572C101.752 32.5951 100.124 35.2678 97.0653 35.2678Z" fill="#262626"/>
<path d="M118.863 14.4856C120.364 12.9805 120.364 10.5401 118.863 9.0349C117.361 7.52971 114.928 7.52971 113.427 9.0349C111.925 10.5401 111.925 12.9805 113.427 14.4856C114.928 15.9908 117.361 15.9908 118.863 14.4856Z" fill="#262626"/>
<path d="M110.029 22.4108H112.975V39.6005H119.991V17.4312H110.029V22.4108Z" fill="#262626"/>
<path d="M137.247 16.7839C134.189 16.7839 132.056 18.0781 130.429 20.4694H130.289V17.431H123.526V39.5722H130.569V27.3341C130.569 24.6051 132.112 22.6639 134.441 22.6639C136.742 22.6639 137.893 24.2675 137.893 26.6026V39.5722H144.936V25.1678C144.936 20.2444 142.074 16.7839 137.247 16.7839Z" fill="#262626"/>
<path d="M161.435 8.65332H148.275V39.5723H160.958C164.831 39.5723 167.945 38.5876 170.359 36.7589C173.81 34.1143 175.718 29.7536 175.718 24.2957C175.718 14.8427 169.965 8.65332 161.435 8.65332ZM160.397 33.1578H155.908V15.0678H160.481C165.28 15.0678 168.001 18.697 168.001 24.3238C167.973 29.9787 165.392 33.1578 160.397 33.1578Z" fill="#262626"/>
<path d="M196.566 19.7098C194.658 17.9937 192.161 16.9528 189.018 16.9528C182.283 16.9528 177.682 22.0168 177.682 28.6282C177.682 35.3241 182.171 40.3881 189.467 40.3881C192.273 40.3881 194.517 39.6566 196.37 38.3625C198.306 37.0121 199.596 35.1271 200.074 33.1297H193.227C192.61 34.5082 191.403 35.3241 189.551 35.3241C186.661 35.3241 185.033 33.4672 184.584 30.4851H200.466C200.495 25.9555 199.204 22.1293 196.566 19.7098ZM184.612 26.265C185.09 23.6204 186.464 21.9324 189.13 21.9324C191.403 21.9324 193.059 23.6204 193.311 26.265H184.612Z" fill="#262626"/>
<path d="M214.328 25.7305C211.521 25.2241 209.024 24.999 209.024 23.4516C209.024 22.0731 210.371 21.426 212.082 21.426C214.019 21.426 215.366 22.0449 215.618 24.0143H222.1C221.763 19.6536 218.396 16.9246 212.139 16.9246C206.92 16.9246 202.598 19.3441 202.598 24.0143C202.598 29.219 206.695 30.2318 210.539 30.8789C213.486 31.3853 216.151 31.6104 216.151 33.6079C216.151 35.0427 214.805 35.8023 212.7 35.8023C210.371 35.8023 208.912 34.7332 208.631 32.5107H201.981C202.206 37.406 206.246 40.3881 212.728 40.3881C218.508 40.3881 222.773 37.8842 222.773 33.0452C222.802 27.3903 218.228 26.3775 214.328 25.7305Z" fill="#262626"/>
<path d="M239.33 25.7586L247.102 17.431H238.993L232.427 24.9146V8.65326H225.496V39.6003H232.427V32.792L234.559 30.5413L239.863 39.6003H248L239.33 25.7586Z" fill="#262626"/>
<path d="M23.2683 26.2652C24.4461 26.2652 25.4008 25.3079 25.4008 24.127C25.4008 22.9461 24.4461 21.9889 23.2683 21.9889C22.0905 21.9889 21.1357 22.9461 21.1357 24.127C21.1357 25.3079 22.0905 26.2652 23.2683 26.2652Z" fill="#F8BF1E"/>
<path d="M40.2732 26.2652C41.4509 26.2652 42.4057 25.3079 42.4057 24.127C42.4057 22.9461 41.4509 21.9889 40.2732 21.9889C39.0954 21.9889 38.1406 22.9461 38.1406 24.127C38.1406 25.3079 39.0954 26.2652 40.2732 26.2652Z" fill="#F8BF1E"/>
<path d="M40.2732 43.3422C41.4509 43.3422 42.4057 42.3849 42.4057 41.204C42.4057 40.0232 41.4509 39.0659 40.2732 39.0659C39.0954 39.0659 38.1406 40.0232 38.1406 41.204C38.1406 42.3849 39.0954 43.3422 40.2732 43.3422Z" fill="#F8BF1E"/>
<path d="M46.5299 6.65588C46.3054 3.53304 43.8081 1.00101 40.6935 0.775941C38.7012 0.635272 36.9053 1.39488 35.6427 2.68903C34.6886 3.67371 33.3979 4.26452 32.0229 4.26452H31.5179C30.1149 4.26452 28.7961 3.67371 27.814 2.6609C26.6635 1.47928 25.0641 0.775941 23.2963 0.775941C21.5285 0.775941 19.9291 1.50742 18.7787 2.6609C17.7966 3.67371 16.4778 4.26452 15.0748 4.26452H14.5977C13.2228 4.26452 11.904 3.72998 10.95 2.7453C10.7536 2.54837 10.5571 2.35143 10.3607 2.18263C7.97564 0.2414 4.46813 0.297667 2.16722 2.35143C-0.610712 4.79906 -0.722951 9.07539 1.85856 11.6637C1.88662 11.6918 1.91468 11.7199 1.94274 11.7481C2.9529 12.7046 3.48603 14.0551 3.48603 15.4336V15.9119C3.48603 17.3186 2.89678 18.6408 1.88662 19.6255C0.708103 20.779 0.00660673 22.3826 0.00660673 24.1551C0.00660673 25.9275 0.736166 27.5311 1.88662 28.6846C2.89678 29.6693 3.48603 30.9916 3.48603 32.3982V33.0453C3.48603 34.4239 2.89678 35.718 1.91468 36.6745C0.680046 37.8843 -0.0775727 39.6005 0.00660673 41.4854C0.146906 44.8052 2.84065 47.4779 6.12366 47.5905C8.03176 47.6467 9.74339 46.8871 10.95 45.6211C11.904 44.6364 13.1947 44.0174 14.5697 44.0174H15.1028C16.4778 44.0174 17.7685 44.6083 18.7226 45.6211C19.9852 46.9434 21.8092 47.7029 23.8014 47.5623C26.916 47.3372 29.4414 44.8052 29.6659 41.6542C29.9184 37.9125 27.0003 34.8177 23.3244 34.8177C21.5846 34.8177 19.9852 35.521 18.8348 36.6745C17.8527 37.6592 16.5339 38.25 15.1589 38.25H14.5697C13.1947 38.25 11.8479 37.7155 10.8658 36.7027C10.8377 36.6745 10.8377 36.6745 10.8097 36.6464C9.79951 35.6617 9.21026 34.3395 9.21026 32.9328V32.3701C9.21026 30.9634 9.79951 29.6412 10.8097 28.6565C11.9882 27.503 12.6897 25.8993 12.6897 24.1269C12.6897 22.3545 11.9601 20.7509 10.8097 19.5974C9.79951 18.6127 9.21026 17.2904 9.21026 15.8838V15.3773C9.21026 13.9707 9.79951 12.6483 10.7816 11.6637C10.8097 11.6356 10.8097 11.6356 10.8377 11.6074C10.8658 11.5793 10.8658 11.5793 10.8938 11.5512C11.8759 10.5665 13.1947 9.97566 14.5977 9.97566H15.1028C16.5058 9.97566 17.8246 10.5665 18.8067 11.5793C19.9572 12.7609 21.5566 13.4643 23.3244 13.4643C25.0922 13.4643 26.6916 12.7327 27.842 11.5793C28.8241 10.5665 30.143 9.97566 31.5459 9.97566H31.9949C33.3979 9.97566 34.7167 10.5665 35.6988 11.5793C36.8492 12.7609 38.4486 13.4643 40.2165 13.4643C43.8643 13.4924 46.7824 10.3977 46.5299 6.65588Z" fill="#F8BF1E"/>
</g>
<defs>
<clipPath id="clip0_1_15271">
<rect width="248" height="47" fill="white" transform="translate(0 0.759277)"/>
</clipPath>
</defs>
</svg>
